<svg width="600" height="400" viewBox="0 0 600 400" xmlns="http://www.w3.org/2000/svg">
  <!-- Background -->
  <rect x="0" y="0" width="600" height="400" fill="#f0f4f8" opacity="0.5"/>
  
  <!-- Voting Device -->
  <rect x="150" y="50" width="300" height="200" rx="10" fill="#ffffff" stroke="#2563eb" stroke-width="4"/>
  <rect x="170" y="80" width="260" height="140" rx="5" fill="#dbeafe"/>
  
  <!-- Ballot Box -->
  <rect x="240" y="250" width="120" height="100" rx="5" fill="#ffffff" stroke="#2563eb" stroke-width="3"/>
  <rect x="280" y="250" width="40" height="10" fill="#ffffff" stroke="#2563eb" stroke-width="3"/>
  <path d="M290 300 L320 280 L350 310 L290 350 L260 320 Z" fill="#34d399" opacity="0.8"/>
  
  <!-- Person silhouette -->
  <circle cx="300" cy="120" r="35" fill="#3b82f6" opacity="0.8"/>
  <path d="M300 170 Q260 170 260 210 L260 230 L340 230 L340 210 Q340 170 300 170" fill="#3b82f6" opacity="0.8"/>
  
  <!-- Face recognition frame -->
  <rect x="255" y="80" width="90" height="90" rx="5" fill="none" stroke="#e11d48" stroke-width="3" stroke-dasharray="10 5"/>
  
  <!-- Check mark -->
  <circle cx="400" cy="120" r="25" fill="#34d399" opacity="0.8"/>
  <path d="M385 120 L395 130 L415 110" fill="none" stroke="white" stroke-width="5" stroke-linecap="round" stroke-linejoin="round"/>
  
  <!-- India map outline (simplified) -->
  <path d="M480 120 Q500 100 520 120 Q540 140 530 170 Q520 200 490 210 Q460 220 450 200 Q440 180 450 160 Q460 140 480 120" fill="#ffedd5" stroke="#f97316" stroke-width="2"/>
  
  <!-- Indian flag colors -->
  <rect x="450" y="60" width="80" height="10" fill="#ff9933"/>
  <rect x="450" y="70" width="80" height="10" fill="#ffffff"/>
  <rect x="450" y="80" width="80" height="10" fill="#128807"/>
  <circle cx="490" cy="75" r="4" fill="#000080"/>
  
  <!-- Digital connections -->
  <path d="M100 100 L150 100" stroke="#94a3b8" stroke-width="2" stroke-dasharray="5 3"/>
  <path d="M100 150 L150 150" stroke="#94a3b8" stroke-width="2" stroke-dasharray="5 3"/>
  <path d="M100 200 L150 200" stroke="#94a3b8" stroke-width="2" stroke-dasharray="5 3"/>
  <path d="M450 100 L500 100" stroke="#94a3b8" stroke-width="2" stroke-dasharray="5 3"/>
  <path d="M450 150 L500 150" stroke="#94a3b8" stroke-width="2" stroke-dasharray="5 3"/>
  <path d="M450 200 L500 200" stroke="#94a3b8" stroke-width="2" stroke-dasharray="5 3"/>
  
  <!-- Dots representing data -->
  <circle cx="100" cy="100" r="4" fill="#3b82f6"/>
  <circle cx="100" cy="150" r="4" fill="#3b82f6"/>
  <circle cx="100" cy="200" r="4" fill="#3b82f6"/>
  <circle cx="500" cy="100" r="4" fill="#3b82f6"/>
  <circle cx="500" cy="150" r="4" fill="#3b82f6"/>
  <circle cx="500" cy="200" r="4" fill="#3b82f6"/>
</svg> 